<svg t="1762934217376" class="icon" viewBox="0 0 1024 1024" version="1.1" xmlns="http://www.w3.org/2000/svg" p-id="1136" width="200" height="200"><path d="M248.874 489.144c9.254-1.502 19.35-0.319 29.442 5.09 9.82 5.264 18.773 14.057 26.996 26.39 2.236 3.355 5.214 7.096 8.783 11.139a15.932 15.932 0 0 1 8.225-6.401c0.072-0.039 0.163-0.086 0.27-0.147 0.945-0.54 1.604-0.974 3.436-2.077 3.05-1.837 7.733-4.521 13.592-6.24 13.161-3.863 28.399-1.816 44.755 11.013 19.571 15.349 28.504 24.836 41.724 37.564 6.365 6.129 6.556 16.258 0.428 22.623-6.13 6.365-16.258 6.557-22.624 0.428-13.782-13.271-21.304-21.34-39.276-35.436-9.144-7.172-13.823-6.125-15.996-5.487-1.807 0.53-3.645 1.472-6.094 2.947-0.918 0.553-2.755 1.698-4.064 2.446-0.558 0.319-1.309 0.735-2.204 1.175a761.287 761.287 0 0 0 11.31 10.374c17.505 15.754 38.555 33.457 51.275 45.199a15.926 15.926 0 0 1 4.944 9.208 15.973 15.973 0 0 1-4.04 13.401c-5.994 6.493-16.116 6.898-22.609 0.904-13.281-12.259-31.397-27.306-50.976-44.927-18.346-16.511-37.366-34.777-47.484-49.955-6.278-9.416-11.638-13.873-15.489-15.937-3.579-1.919-6.514-2.143-9.197-1.707-5.603 0.909-11 4.691-16.337 9.139 15.42 12.03 34.968 28.085 54.237 44.064 28.388 23.542 56.473 47.175 72.044 59.533 6.922 5.493 8.08 15.558 2.586 22.48-5.493 6.921-15.557 8.079-22.478 2.586-15.929-12.643-44.593-36.759-72.579-59.967-27.383-22.708-53.869-44.335-68.58-54.847-16.969-6.389-27.469-6.754-33.284-5.48-5.123 1.122-7.066 3.521-8.113 6.161-1.35 3.405-1.565 8.617 0.177 14.305 1.535 5.011 4.092 8.773 6.484 10.881 15.295-4.669 33.446-3.475 51.334 8.68 56.409 38.33 110.926 74.781 136.848 92.846C368.907 657.561 387.72 648 411.5 648c12.536 0 34.551 1.026 57.873 2.014C493.02 651.016 518.392 652 538.5 652c2.983 0 8.771-1.281 18.279-4.734 9.075-3.296 19.621-7.822 31.674-12.934 23.468-9.953 52.125-21.94 79.617-27.061 26.374-4.913 58.163-1.561 86.376 7.581 27.911 9.043 55.355 24.756 70.367 47.273 4.232 6.349 14.088 19.781 26.075 32.7 12.481 13.451 25.201 24.046 35.08 27.638 8.304 3.02 12.589 12.201 9.569 20.505-2.406 6.618-8.724 10.682-15.394 10.532a15.896 15.896 0 0 1-5.111-0.964c-17.621-6.407-34.773-22.12-47.602-35.947-13.324-14.359-24.219-29.177-29.243-36.714-9.322-13.982-28.941-26.59-53.604-34.581-24.359-7.892-50.654-10.289-70.652-6.564-23.508 4.379-49.001 14.891-72.983 25.062-11.672 4.951-23.176 9.894-33.245 13.551-4.517 1.641-9.212 3.206-13.866 4.406-0.62 0.16-1.24 0.314-1.858 0.46-4.639 1.098-9.205 1.791-13.479 1.791-20.891 0-46.926-1.016-70.482-2.014C444.137 680.974 423.151 680 411.5 680c-7.45 0-13.875 1.489-19.285 3.949-0.471 0.214-0.934 0.434-1.389 0.663-8.873 4.45-14.829 11.562-17.917 18.813-5.652 13.277-0.826 20.799 4.015 22.921 5.895 2.584 18.902 5.513 38.006 8.381 18.45 2.769 40.795 5.245 64.054 7.503 45.894 4.454 96.286 8.118 123.428 11.385 8.773 1.056 15.03 9.024 13.974 17.797a16.005 16.005 0 0 1-1.282 4.638c-2.79 6.225-9.388 10.193-16.516 9.335-26.858-3.233-75.216-6.696-122.696-11.305-23.429-2.274-46.429-4.813-65.712-7.708-18.63-2.796-35.749-6.179-46.104-10.718-24.3-10.653-28.928-35.86-23.438-56.514a15.95 15.95 0 0 1-0.813-0.532c-24.888-17.421-80.097-54.313-138.318-93.874-12.964-8.809-24.624-6.205-33.09 0.085-4.483 3.331-7.591 7.431-9.093 10.834-0.719 1.63-0.904 2.638-0.946 3.136 0.225 0.307 0.568 0.757 1.065 1.364 1.093 1.331 2.597 3.023 4.534 5.074 3.87 4.098 9.044 9.184 15.198 14.983 12.284 11.578 27.941 25.505 43.69 39.189 31.603 27.457 62.805 53.262 66.918 56.44 1.905 1.472 4.823 3.557 8.576 6.137 1.252 0.86 2.595 1.776 4.026 2.741 17.166 11.587 46.77 30.457 77.513 49.025a2008.913 2008.913 0 0 0 26.486 15.732c2.477 1.444 4.934 2.868 7.363 4.267 8.502 4.895 16.668 9.484 24.214 13.58 17.785 9.653 30.474 15.629 36.174 17.22 0.031-0.002 0.783 0.136 2.647 0.243 2.058 0.117 4.797 0.164 8.239 0.125 6.871-0.08 15.83-0.492 26.377-1.151 21.075-1.316 47.635-3.558 74.915-5.834 27.165-2.266 55.013-4.563 78.308-5.945 22.546-1.338 42.912-1.982 53.828-0.291 9.967 1.544 22.197 6.373 32.823 11.066 10.991 4.855 22.214 10.473 30.208 14.349 7.951 3.855 11.272 13.426 7.417 21.377-2.771 5.715-8.495 9.038-14.448 9.023a15.93 15.93 0 0 1-6.93-1.606c-2.127-1.031-4.37-2.129-6.699-3.267a2305.01 2305.01 0 0 0-3.554-1.734 927.483 927.483 0 0 0-7.407-3.569c-0.631-0.299-1.263-0.599-1.898-0.898a524.273 524.273 0 0 0-3.83-1.786 392.617 392.617 0 0 0-5.79-2.617c-10.67-4.713-19.44-7.886-24.791-8.715-6.833-1.059-23.441-0.788-47.033 0.611-22.843 1.355-50.299 3.618-77.544 5.891-27.131 2.263-54.091 4.542-75.581 5.884-10.736 0.67-20.324 1.121-28.002 1.21-6.854 0.079-14.43-0.053-19.62-1.476-9.849-2.7-25.867-10.647-43.074-19.985-17.845-9.686-38.794-21.902-59.342-34.313-40.761-24.618-81.296-50.822-93.137-59.972-4.898-3.785-36.696-30.113-68.34-57.606-15.874-13.792-31.905-28.045-44.65-40.058-6.362-5.995-12.038-11.558-16.515-16.298-4.059-4.298-8.373-9.185-10.742-13.505-5.861-10.687-3.669-22.472 0.08-30.964 2.491-5.642 6.142-11.059 10.645-15.88-4.405-5.683-7.616-12.235-9.619-18.774-3.32-10.843-3.973-23.756 0.676-35.476 4.953-12.485 15.448-22.211 31.012-25.62 13.231-2.898 29.092-1.044 47.467 5.364a15.97 15.97 0 0 1 3.27-3.918c5.127-4.458 18.211-16.497 35.373-19.282z" fill="#8E3701" p-id="1137"></path><path d="M755.951 141c8.35-0.029 15.35 6.39 16.001 14.76 7.934 102.089-33.195 167.348-85.465 203.634a205.193 205.193 0 0 1-27.223 15.932 210.296 210.296 0 0 1-5.908 2.761c-12.422 5.575-24.916 9.725-37.003 12.588a186.796 186.796 0 0 1-6.78 1.481c-0.888 0.178-1.774 0.349-2.657 0.513-11.185 2.074-22.187 3.082-32.517 2.989a138.17 138.17 0 0 1-8.007-0.302 128.097 128.097 0 0 1-3.112-0.25 111.52 111.52 0 0 1-8.984-1.195C544.571 416.306 539 436.931 539 453c0 33.628-0.844 68.232-2.307 100.282 21.24 4.377 46.321 14.236 66.957 26.449 7.604 4.5 10.121 14.314 5.62 21.919-4.501 7.604-14.314 10.12-21.919 5.62a190.484 190.484 0 0 0-13.145-7.078c2.684 4.699 5.157 9.443 7.306 14.071a15.958 15.958 0 0 1 1.246 9.516c-0.881 4.971-4.093 9.447-9.019 11.734a15.95 15.95 0 0 1-8.548 1.387 16.165 16.165 0 0 1-3.679-0.871l-0.107-0.041a16.177 16.177 0 0 1-2.001-0.906 16.02 16.02 0 0 1-4.259-3.331 15.998 15.998 0 0 1-2.656-4.013c-4.313-9.288-10.332-19.341-16.489-27.922V621c0 8.837-7.163 16-16 16-8.836 0-16-7.164-16-16v-21.683c-6.401 7.968-12.647 17.062-16.999 24.928-4.277 7.732-14.013 10.533-21.746 6.256-7.732-4.277-10.533-14.014-6.256-21.746a167.596 167.596 0 0 1 3.965-6.767c-4.543 2.739-8.805 5.64-12.602 8.612-6.959 5.445-17.015 4.22-22.461-2.739-5.446-6.958-4.22-17.014 2.738-22.461 12.901-10.096 29.08-18.931 44.736-25.086 9.557-3.758 19.714-6.832 29.345-8.363 1.415-30.944 2.242-64.337 2.277-96.853l-11.725-43.615-14.48-37.366c-5.592 0.508-11.137 0.161-16.085-0.5-8.127-1.085-16.121-3.223-22.766-5.438-18.369-6.123-29.189-13.677-39.026-21.746-9.539-7.826-16.687-14.728-30.078-22.671-7.727-4.584-17.117-7.76-29.714-4.564-13.33 3.383-32.554 14.479-57.96 44.199a16 16 0 0 1-27.981-12.798c2.539-16.726 6.779-31.448 12.401-44.29 0.322-0.734 0.648-1.462 0.978-2.184 15.027-32.834 39.28-53.014 67.175-62.734 14.49-5.05 48.772-9.235 83.184-1.784 35.102 7.6 73.385 28.139 89.245 75.293 4.374 13 5.951 25.264 2.544 35.885-0.948 2.957-2.215 5.592-3.731 7.927 0.354 0.638 0.67 1.307 0.941 2.007l11.348 29.286a319.59 319.59 0 0 1 8.065-18.518c0.307-2.379 0.893-4.695 1.624-6.881-6.933-1.571-12.21-7.658-12.448-15.094-1.227-38.389 5.228-89.515 39.775-131.929 34.914-42.865 95.95-73.741 197.269-76.577l0.399-0.006z m-15.104 32.684c-85.212 5.201-131.991 32.478-157.754 64.108-23.364 28.685-31.306 63.195-32.544 94.081 0.721-0.952 1.457-1.911 2.205-2.879 25.967-41.309 60.089-80.604 92.32-102.272 6.743-4.534 15.815-3.292 21.092 2.886 5.278 6.178 5.087 15.331-0.444 21.284-17.8 19.155-44.602 46.953-67.221 72.979-7.191 8.275-13.811 16.206-19.476 23.467a401.258 401.258 0 0 0-9.555 16.146c9.008 0.527 19.739-0.076 31.611-2.278 21.54-3.994 45.393-12.991 67.158-28.099 33.392-23.181 62.686-61.288 70.599-120.087 0.15-1.11 0.291-2.227 0.425-3.351 1.34-11.242 1.906-23.224 1.584-35.985z m-326.698 97.198c-29.11-6.303-57.374-2.238-65.884 0.727-13.463 4.692-26.471 13.005-37.058 26.579 8.307-4.777 16.311-8.043 24.045-10.006 23.028-5.844 41.139 0.481 53.912 8.057 16.108 9.556 25.961 18.821 34.046 25.453 7.789 6.39 15.219 11.586 28.85 16.129 5.354 1.785 11.315 3.334 16.882 4.078 5.819 0.776 9.864 0.485 12.134-0.227 1.53-0.48 1.159-0.646 1.163-0.66 0.377-1.177 1.043-5.663-2.404-15.91-11.048-32.847-37.265-48.066-65.686-54.22z" fill="#FFC400" p-id="1138"></path></svg>