<?xml version="1.0" standalone="no"?><!DOCTYPE svg PUBLIC "-//W3C//DTD SVG 1.1//EN" "http://www.w3.org/Graphics/SVG/1.1/DTD/svg11.dtd"><svg t="1762932745389" class="icon" viewBox="0 0 1024 1024" version="1.1" xmlns="http://www.w3.org/2000/svg" p-id="1031" xmlns:xlink="http://www.w3.org/1999/xlink" width="200" height="200"><path d="M480 128a384.128 384.128 0 0 1 374.4 298.368 285.12 285.12 0 0 0-71.744-31.488l-5.312-1.344a320.128 320.128 0 1 0-570.56 285.184 32 32 0 0 1 4.416 21.184l-13.568 94.336 94.528-13.376a32 32 0 0 1 16.256 1.92l4.928 2.432a317.952 317.952 0 0 0 150.848 46.4c15.68 23.424 34.56 44.416 56.256 62.336a382.4 382.4 0 0 1-224-44.544l-6.336-3.712-125.632 17.984a32 32 0 0 1-36.48-30.976l0.32-5.248 17.92-125.632-3.584-6.272a381.952 381.952 0 0 1-46.144-164.096L96 512a384 384 0 0 1 384-384zM704 448a224 224 0 0 1 224 224l-0.512 15.552a222.784 222.784 0 0 1-24.704 87.808l-1.664 2.88 9.088 63.808a32 32 0 0 1-36.16 36.16l-63.744-9.088 6.272-3.584-9.216 5.248c-27.136 14.08-56.896 22.528-87.808 24.704L704 896a224 224 0 0 1 0-448z m0 64a160 160 0 1 0 83.264 296.64l4.928-2.432a32 32 0 0 1 16.256-1.92l32.448 4.544-4.608-32.384a32 32 0 0 1 4.352-21.12A160 160 0 0 0 704 512z" fill="#222222" p-id="1032"></path></svg>