<?xml version="1.0" encoding="UTF-8"?>
<svg id="_图层_1" data-name="图层 1" xmlns="http://www.w3.org/2000/svg" viewBox="0 0 207.409 246.235">
  <defs>
    <style>
      .cls-1 {
        fill: none;
        stroke: #85c8d1;
        stroke-miterlimit: 10;
        stroke-width: 4px;
      }
    </style>
  </defs>
  <path class="cls-1" d="M56.098,20.692c.579.41,1.449,1.004,2.54,1.664,1.929,1.167,3.313,1.791,5.036,2.628,3.352,1.626,2.877,1.57,5.781,2.978,4.838,2.345,5.019,1.958,7.314,3.416,1.385.88,3.269,2.26,5.08,4.336.977,1.12,1.826,2.11,2.453,3.679.784,1.963.787,3.75.701,4.818"/>
  <path class="cls-1" d="M.521,125.67c3.547-.957,8.591-2.541,14.365-5.168,2.666-1.213,6.8-3.245,17.693-10.248,8.318-5.348,10.04-6.819,16.73-11.212,8.591-5.641,15.242-9.445,20.628-12.526,7.898-4.517,12.605-7.339,19.55-10.801,1.942-.968,5.918-2.943,10.756-5.053,6.627-2.89,15.982-6.517,27.854-9.723"/>
  <path class="cls-1" d="M89.82,77.013c.86,2.67,1.875,6.465,2.431,11.102.445,3.715.553,7.622,0,14.102-.475,5.567-1.348,15.178-4.993,27.591-2.509,8.543-5.234,14.677-7.314,19.314-2.408,5.368-6.182,13.676-12.876,23.518-2.907,4.274-6.437,9.413-12.088,15.241-7.307,7.535-14.56,12.509-19.839,15.635"/>
  <path class="cls-1" d="M46.288,118.794c3.374,1.472,8.156,3.718,13.664,6.876,6.961,3.992,11.635,7.466,18.92,12.92,10.823,8.102,18.433,14.796,20.321,16.467,4.084,3.615,9.83,8.725,16.818,16.117,5.021,5.311,9.063,10.087,12.088,13.839"/>
  <path class="cls-1" d="M149.076,78.546c1.13,2.179,2.605,5.544,3.416,9.854.548,2.912.798,6.279,0,13.796-.824,7.761-1.624,9.196-2.891,17.606-.906,6.014-1.677,11.135-1.708,17.474-.022,4.543.331,10.805,1.971,18.263"/>
  <path class="cls-1" d="M179.426,1.948c3.155.736,5.821,1.481,7.883,2.102,5.989,1.803,4.351,1.791,8.015,2.759,1.43.378,3.205.783,4.861,2.234,1.201,1.051,1.578,1.986,1.708,2.365.53,1.543.088,2.965,0,3.285-3.405,12.44-.917,25.798-2.234,38.628-1.019,9.925-.329,23.609,1.051,50.978,1.225,24.294,2.35,29.168,3.504,51.241,1.838,35.169-.073,27.146,1.139,46.599,0,0,.452,7.257-1.226,30.131-.073.993-.269,3.449-1.226,6.482-.712,2.255-1.418,4.642-2.277,5.255-2.067,1.475-9.955-3.667-34.161-30.307"/>
</svg>