<?xml version="1.0" encoding="UTF-8"?>
<svg id="_图层_1" data-name="图层 1" xmlns="http://www.w3.org/2000/svg" viewBox="0 0 189.297 269.783">
  <defs>
    <style>
      .cls-1 {
        fill: none;
        stroke: #85c8d1;
        stroke-miterlimit: 10;
        stroke-width: 3px;
      }
    </style>
  </defs>
  <path class="cls-1" d="M104.231,1.265c4.3,2.744,7.517,4.61,9.985,5.956,1.261.688,3.047,1.633,4.204,3.679,1.005,1.776,1.038,3.515,1.051,4.204.233,12.206,1.183,24.409.876,36.613-.216,8.602.194,6.461,0,16.292-.232,11.72-.947,21.408-1.577,28.204"/>
  <path class="cls-1" d="M123.851,44.184c2.507.446,5.715.881,9.46,1.051,6.292.285,11.086-.316,12.613-.526,4.448-.61,5.946-1.294,13.839-3.328,29.772-7.672,8.868-2,13.314-3.153,3.012-.781,5.388-1.446,8.759-1.401,2.904.039,5.274.588,6.832,1.051"/>
  <path class="cls-1" d="M72.873,100.812c2.88.312,5.921.555,9.109.701.605.028,6.983.306,13.314,0,7.607-.368,13.532-1.502,21.723-3.153,12.053-2.43,32.018-6.588,43.62-8.409,9.085-1.426,5.085-.171,12.613-1.226,0,0,3.224-.452,7.533,0,1.663.174,2.922.429,4.204,1.226.803.499,2.7,1.518,2.803,2.978.112,1.577-1.894,2.892-2.453,3.285-3.557,2.503-5.046,7.451-9.985,20.365-1.775,4.64-4.502,11.634-8.234,20.672"/>
  <path class="cls-1" d="M72.873,149.775c3.301.054,7.698.085,12.876,0,3.869-.063,15.327-.309,31.182-1.752,12.299-1.12,27.016-2.509,45.898-6.657,3.264-.717,5.957-1.364,7.796-1.818"/>
  <path class="cls-1" d="M64.552,94.505c1.826,1.947,4.706,5.52,6.569,10.774.994,2.801,1.484,5.524,1.752,11.299.401,8.642-.109,15.267-.701,22.971-1.317,17.129-1.305,17.018-1.314,17.102-2.837,26.938-14.015,50.102-14.015,50.102-3.534,7.324-11.967,23.213-27.854,39.328-10.325,10.473-20.481,17.676-28.204,22.423"/>
</svg>