<?xml version="1.0" standalone="no"?><!DOCTYPE svg PUBLIC "-//W3C//DTD SVG 1.1//EN" "http://www.w3.org/Graphics/SVG/1.1/DTD/svg11.dtd"><svg t="1766554926811" class="icon" viewBox="0 0 1024 1024" version="1.1" xmlns="http://www.w3.org/2000/svg" p-id="22813" xmlns:xlink="http://www.w3.org/1999/xlink" width="200" height="200"><path d="M307.46624 544.068267q16.46592-280.80128 18.199893-284.269227 7.799467-37.266773 4.334934-44.199253-3.467947-5.198507-10.400427-9.53344-29.467307-15.598933-50.26816-19.06688-13.86496-2.60096-20.800853 4.334933-6.065493 6.065493 0.866986 19.06688 20.800853 29.463893 20.800854 50.264747 8.669867 136.065707 2.60096 296.400213c-0.866987 25.99936 32.93184 13.001387 34.665813-12.997973z" fill="#303303" p-id="22814"></path><path d="M272.800427 557.06624q-39.867733 13.868373-71.0656 31.197867-11.267413 3.467947-9.53344-10.397014 3.464533-39.867733 6.929066-83.2 3.467947-20.800853-6.06208-32.935253-13.868373-15.598933-35.5328-25.99936-10.40384-5.198507-19.070293-2.597547-8.666453 3.464533-1.73056 20.79744 21.664427 46.800213 15.598933 93.600427-3.467947 45.06624-21.66784 65.000107-13.86496 16.46592-6.065493 28.60032 11.264 11.264 26.866347 19.933866 13.001387 5.198507 20.800853-3.467946 18.199893-28.60032 147.33312-83.2 31.197867-13.86496 50.264747-17.332907c25.135787-6.065493 34.669227-45.06624 9.53344-37.266773q-38.997333 11.264-71.932587 24.2688l-34.665813 12.997973z" fill="#303303" p-id="22815"></path><path d="M369.8688 557.06624q0 0.866987 0.863573 2.60096 3.467947 21.664427 10.400427 36.399787 6.068907 11.264 15.598933 3.467946 18.199893-15.598933 21.66784-79.735466 0-39.000747 13.001387-65.867094 0.866987-6.065493 5.198507-11.264 10.400427-16.469333-32.93184-43.33568-3.467947-2.60096-6.068907-3.464533-8.666453-5.20192-18.199893-0.866987-6.065493 3.464533-3.464534 12.997974 18.199893 39.867733 3.464534 111.80032c-5.198507 25.132373-10.400427 32.068267-9.53344 37.266773zM545.798827 319.60064q26.002773-37.266773 52.86912-90.999467 12.997973-26.866347 25.99936-42.468693 6.065493-8.666453 1.733973-19.06688-5.20192-8.666453-28.603733-25.132373-21.664427-11.264-37.26336-10.400427-13.868373 3.467947-6.068907 19.933867 26.866347 47.6672-95.3344 246.135466-6.065493 8.66304-7.796053 12.997974-2.60096 8.666453 8.666453 6.065493 18.199893-5.198507 71.932587-77.131093l13.86496-19.933867z" fill="#303303" p-id="22816"></path><path d="M531.933867 339.534507q7.799467 7.799467 40.731306 14.731946 18.199893 2.60096 92.73344-13.001386 124.801707-26.862933 130.8672-33.798827 8.669867-7.799467 3.467947-16.46592-7.799467-11.264-36.399787-17.332907-25.99936-5.20192-110.066346 25.132374-63.266133 15.598933-107.4688 20.800853c-25.99936 3.464533-35.5328 6.065493-13.86496 19.933867zM483.39968 479.931733q-13.001387 0.866987-14.731947 8.669867-0.866987 6.065493 6.065494 9.530027 29.467307 7.80288 58.067626 0 24.2688-8.666453 47.6672-16.46592 19.06688-5.198507 21.664427 0.866986 5.20192 8.669867-6.065493 23.401814-120.466773 163.79904-116.998827 248.7296 3.464533 32.068267 28.596907 52.86912 62.40256 52.865707 208.001706 48.534186 80.59904-2.60096 174.199467-42.468693 26.866347-11.264 19.933867-32.064853-16.46592-52.865707-25.132374-140.40064-3.467947-11.264-10.400426-12.1344-5.20192 0-9.53344 13.868373-6.068907 31.197867-13.868374 65.000107-10.400427 49.39776-47.663786 66.730666-36.4032 20.800853-121.33376 22.534827-84.0704 0.866987-117.00224-13.86496-29.467307-13.868373-38.13376-43.33568-16.46592-70.198613 92.73344-194.133333 33.80224-39.867733 67.601066-57.197227 21.66784-10.400427 14.731947-21.66784-6.065493-13.868373-51.131733-36.399787-16.46592-10.400427-40.73472 1.733974-65.86368 34.665813-126.532267 47.663786z" fill="#303303" p-id="22817"></path></svg>