<?xml version="1.0" encoding="UTF-8"?>
<svg id="_图层_1" data-name="图层 1" xmlns="http://www.w3.org/2000/svg" viewBox="0 0 291.892 258.051">
  <defs>
    <style>
      .cls-1 {
        fill: none;
        stroke: #88cfda;
        stroke-miterlimit: 10;
      }
    </style>
  </defs>
  <path class="cls-1" d="M62.078,49.563c.094,4.629.169,11.555,0,19.971-.249,12.375-.862,19.858-1.752,34.686-1.258,20.964-.886,20.237-1.752,33.635-.659,10.198-1.794,24.842-3.854,42.745"/>
  <path class="cls-1" d="M16.53,115.081c-.617,7.435-1.422,15.152-2.453,23.124-1.639,12.678-2.681,14.5-4.555,28.73-.115.872-.844,6.434-2.102,13.664-1.134,6.521-1.805,9.264-2.453,11.562-.625,2.221-1.718,5.761-2.102,7.007-2.162,7.008-2.785,8.55-2.102,9.109.969.794,3.541-1.237,7.883-3.854,3.981-2.4,8.301-4.188,12.438-6.307,6.199-3.175,7.823-3.494,21.723-9.46,17.05-7.318,18.747-8.61,28.029-11.912,6.263-2.228,11.263-3.694,14.365-4.555,4.974-1.381,9.37-2.401,12.964-3.153"/>
  <path class="cls-1" d="M104.121,117.534c-.309,7.286-.903,16.577-2.102,27.328-1.805,16.184-4.165,28.381-5.606,35.737-1.497,7.647-3.536,17.086-6.307,27.853"/>
  <path class="cls-1" d="M185.756.161c-2.396,7.023-5.795,16.049-10.511,26.277-9.576,20.769-19.376,35.199-22.423,39.591-6.737,9.712-15.902,21.438-28.029,33.635"/>
  <path class="cls-1" d="M159.26,67.782c2.972-.631,6.226-1.356,9.723-2.19,0,0,4.721-1.125,9.416-2.365,13.412-3.542,29.118-8.876,30.832-9.46,12.875-4.39,13.067-4.895,24.526-8.759,9.488-3.2,17.315-5.538,22.423-7.007"/>
  <path class="cls-1" d="M140.734,151.256c12.144-5.474,24.319-10.992,36.526-16.555,0,0,20.421-8.742,34.423-15.766.893-.448,4.867-2.449,9.985-5.255,5.581-3.061,8.743-5.007,9.985-5.781,2.224-1.384,3.489-2.172,5.255-3.416,4.401-3.099,6.289-5.07,6.569-4.818.444.401-3.871,5.738-7.095,9.985-5.991,7.894-8.39,12.259-13.401,19.971-3.968,6.107-12.159,17.293-28.38,39.416-8.27,11.279-15.384,23.381-23.737,34.599-3.635,4.882-8.777,11.601-9.81,21.372-.314,2.973-.934,9.708,2.891,16.555,3.036,5.436,7.35,8.214,9.46,9.538,4.443,2.788,8.693,3.657,18.717,4.651,10.273,1.02,18.469,1.314,25.167,1.489,12.669.331,19.148.486,26.221,0,8-.55,4.549-.836,19.764-2.453,8.14-.865,11.608-1.046,15.766-3.688,4.231-2.688,6.701-6.349,7.708-7.874,3.092-4.68,3.986-8.997,4.204-10.161.771-4.101.364-7.303,0-10.161-.246-1.936-.535-3.129-2.453-10.511-.579-2.228-1.287-4.948-2.102-8.058"/>
</svg>