<?xml version="1.0" encoding="UTF-8"?>
<svg id="_图层_1" data-name="图层 1" xmlns="http://www.w3.org/2000/svg" viewBox="0 0 467.747 408.441">
  <defs>
    <style>
      .cls-1 {
        fill: none;
        stroke: #88cfda;
        stroke-miterlimit: 10;
      }
    </style>
  </defs>
  <path class="cls-1" d="M74.652,57.224c3.249,3.442,7.707,9.006,10.861,16.818,2.783,6.893,3.425,12.749,3.854,18.569,1.236,16.769.344,28.327,0,39.591-.377,12.359.403,8.096.753,37.839.175,14.877.028,20.061,0,42.044-.014,10.846,0,26.72.144,46.248"/>
  <path class="cls-1" d="M.374,195.969c3.868,4.369,9.151,11.346,13.139,21.022.707,1.716,3.888,9.618,5.255,21.022,1.298,10.827.164,18.605-2.102,34.161-2.576,17.677-5.916,27.542-6.752,29.956-2.765,7.982-6.489,12.114-5.336,13.139,1.829,1.625,11.574-7.776,25.226-17.869,12.797-9.46,22.764-14.899,37.839-23.124,22.124-12.072,19.591-8.092,46.248-22.073,12.066-6.328,21.383-11.758,36.788-16.818,7.134-2.343,13.185-3.822,17.343-4.73"/>
  <path class="cls-1" d="M168.024,162.334c1.528,5.356,3.299,12.903,4.204,22.073.872,8.831.55,15.205,0,25.226-.34,6.198-1.26,19.695-4.204,37.314-1.218,7.289-3.035,16.794-5.781,27.854"/>
  <path class="cls-1" d="M283.644.202c1.771,4.002,3.953,10.328,3.942,18.131-.015,10.063-3.672,17.647-9.723,28.642-9.282,16.867-17.375,29.362-20.496,34.161-21.642,33.271-25.044,37.701-28.117,41.501-9.179,11.352-17.696,19.904-23.65,25.506"/>
  <path class="cls-1" d="M263.586,94.188c5.19.938,11.646,1.799,19.095,2.102,5.512.224,13.78.232,23.65-1.051,9.322-1.212,15.693-3.007,28.029-6.482,11.089-3.124,12.405-4.061,25.226-7.533,1.502-.407,7.959-2.147,16.642-4.204,5.567-1.319,12.008-2.842,20.496-4.467,4.716-.903,10.932-2.005,18.307-3.066"/>
  <path class="cls-1" d="M230.039,204.027c5.37.482,12.991.815,22.073,0,8.14-.73,13.883-2.062,23.124-4.204,10.969-2.543,18.073-4.19,27.328-7.883,8.51-3.396,17.901-8.147,20.496-9.46,8.753-4.428,12.686-6.924,13.139-6.307.716.978-8.581,8.014-20.496,19.796-2.779,2.748-12.525,12.502-23.124,25.927-9.561,12.111-15.725,22.027-19.971,28.905-10.538,17.071-15.988,25.9-21.022,39.416-1.753,4.708-9.061,25.033-9.46,51.504-.159,10.582.867,16.734,2.102,21.547,1.672,6.514,4.828,18.206,14.715,26.803,5.869,5.104,11.905,7.199,15.766,8.409,31.342,9.821,67.27,9.46,67.27,9.46s41.732-.419,89.343-13.664c.512-.143,6.823-2.548,19.445-7.358,2.596-.989,5.48-2.119,8.409-4.73,4.044-3.606,5.703-7.866,6.307-9.46,1.347-3.556,1.508-6.381,1.708-10.511.152-3.137.019-5.308-.788-14.058-.757-8.209-.882-8.921-1.314-13.796-.693-7.821-.641-9.017-1.182-14.978-.342-3.763-.906-9.274-1.839-16.029"/>
</svg>