<?xml version="1.0" encoding="UTF-8"?>
<svg id="_图层_1" data-name="图层 1" xmlns="http://www.w3.org/2000/svg" viewBox="0 0 169.9 200.999">
  <defs>
    <style>
      .cls-1 {
        fill: none;
        stroke: #88cfda;
        stroke-miterlimit: 10;
      }
    </style>
  </defs>
  <path class="cls-1" d="M34.902,3.217c.104-.392.35-1.101.964-1.752.335-.355.873-.926,1.577-.964.733-.039,1.243.522,2.1,1.358.956.931,2.032,1.733,2.98,2.672,1.839,1.819,3.522,2.937,5.431,4.204,1.282.851,2.725,1.809,4.73,2.715,1.638.741,4.087,1.643,7.27,2.102"/>
  <path class="cls-1" d="M19.748,15.042c1.361.751,3.122,1.564,5.255,2.19.565.166,2.35.652,7.095,1.051,2.05.172,4.33.377,7.443.35,1.933-.016,5.158-.128,9.111-.701,2.893-.419,4.964-.91,8.146-1.664,3.349-.794,3.523-1.009,7.007-1.839,2.022-.482,4.27-1.013,7.27-1.489,1.685-.267,3.97-.624,7.007-.788,2.569-.139,4.775-.093,6.482,0"/>
  <path class="cls-1" d="M43.245,21.349c.072,1.323.121,3.195,0,5.431-.138,2.555-.45,4.688-1.051,7.883-.532,2.83-1.261,6.704-2.651,12.088-1.04,4.024-1.657,5.827-1.903,9.109-.159,2.129-.089,3.897,0,5.08"/>
  <path class="cls-1" d="M64.442,22.75c.718.096,3.004.492,4.905,2.453.433.446,2.15,2.268,2.277,4.905.089,1.844-.632,3.394-2.453,5.956-2.856,4.02-5.683,6.684-7.533,8.409-4.74,4.421-7.141,6.598-8.584,7.883-6.007,5.353-9.011,8.03-11.212,9.81-5.138,4.157-7.707,6.235-11.212,8.058-3.618,1.883-5.916,2.42-12.613,4.38-11.727,3.431-17.563,5.238-17.518,5.431.089.384,11.208-.84,24.175-5.08,9.112-2.98,17.067-6.772,27.482-11.737,0,0,7.379-3.518,22.27-7.358,2.839-.732,4.592-1.106,4.905-.526.907,1.68-12.067,7.976-27.175,21.898-11.368,10.475-12.361,14.593-19.774,19.095-.588.357-4.93,2.972-8.934,7.883-1.894,2.323-4.379,5.978-3.701,6.657.558.559,2.95-1.209,5.803-2.978,2.429-1.506,8.451-4.041,20.496-9.109,6.669-2.806,10.048-4.223,12.263-4.905,2.676-.824,5.287-1.469,10.686-3.153,2.315-.722,4.202-1.342,5.431-1.752"/>
  <path class="cls-1" d="M52.442,80.867c.379,2.072.732,4.219,1.051,6.438.335,2.335.531,3.606.657,5.124.287,3.458.088,6.083,0,7.358-.451,6.515-.401,13.057-.78,19.577-1.122,19.286-.943,22.877-2.373,31.796-.26,1.62-2.288,13.98-4.599,13.927-.482-.011-.595-.553-3.08-3.81-1.781-2.335-2.113-2.568-2.887-3.81-1.212-1.945-1.761-3.561-2.048-4.336-.814-2.198-2.396-5.397-5.781-9.723"/>
  <path class="cls-1" d="M12.632,125.801c-.915,2.503-2.243,6.175-3.81,10.642-3.522,10.04-4.037,12.088-3.547,12.35.397.213,1.606-.668,5.387-6.044"/>
  <path class="cls-1" d="M56.252,121.203c4.641,1.854,7.996,3.923,10.248,5.518,2.226,1.577,4.199,3.275,7.752,5.124,2.084,1.085,3.895,1.795,5.125,2.234"/>
  <path class="cls-1" d="M117.719,33.064c1.371.148,3.092.387,5.058.788,1.262.257,3.57.737,6.372,1.708,3.193,1.107,3.061,1.478,6.241,2.628,3.964,1.433,6.259,1.612,6.241,2.234-.019.653-2.572,1.075-3.219,1.182-1.901.314-2.836-.015-4.401,0-1.696.016-2.949.427-5.387,1.248-3.27,1.102-5.538,2.281-7.029,3.022-2.205,1.095-6.66,2.832-15.569,6.307-2.676,1.044-4.916,1.897-6.504,2.496"/>
  <path class="cls-1" d="M99.522,57.721c.827,5.687,1.645,12.733,2.113,20.847.116,2.007.281,5.345.355,9.478.015.827.155,9.329-.355,18.376-.89,15.77-3.608,30.521-4.73,36.263"/>
  <path class="cls-1" d="M103.212,88.903c1.441.13,3.573.232,6.131,0,1.205-.109,3.394-.373,9.723-2.277,2.645-.796,5.588-1.786,11.474-3.766.732-.246,2.88-.971,5.838-1.895,0,0,.004-.001.004-.001,2.987-.933,5.338-1.735,6.246-2.046,5.678-1.944,6.181-2.266,9.285-3.241,2.041-.641,4.542-1.283,9.46-2.54,3.51-.897,6.413-1.615,8.409-2.102"/>
  <path class="cls-1" d="M136.803,82.246c.986,4.514,2.166,10.637,3.109,17.956.243,1.882,1.28,10.133,1.719,22.774.249,7.176.045,8.258,0,24.35-.051,18.247.208,18.363,0,25.226-.201,6.608-.74,16.366-2.342,28.38"/>
</svg>