<?xml version="1.0" standalone="no"?><!DOCTYPE svg PUBLIC "-//W3C//DTD SVG 1.1//EN" "http://www.w3.org/Graphics/SVG/1.1/DTD/svg11.dtd">
<svg id="_图层_1" data-name="图层 1" xmlns="http://www.w3.org/2000/svg" viewBox="0 0 82.558 81.965">
<defs>
    <style>
    .cls-1 {
        fill: none;
        stroke: #6ff;
        stroke-miterlimit: 10;
    }
    </style>
</defs>
<path class="cls-1" d="M18.397 .177L21.682 8.849L4.697 10.951L36.923 10.951"/>
<path class="cls-1" d="M8.543 18.527L13.536 26.236"/>
<path class="cls-1" d="M32.631 18.527L26.236 29.914L.047 32.367L40.757 32.367"/>
<path class="cls-1" d="M2.324 48.571L38.163 48.571"/>
<path class="cls-1" d="M20.541 33.768L20.008 79.053L14.674 81.418L9.156 78.965"/>
<path class="cls-1" d="M8.543 58.644L1.798 72.922"/>
<path class="cls-1" d="M31.842 58.031L38.163 67.666"/>
<path class="cls-1" d="M78.704 5.564L65.915 7.228L51.55 8.805L51.55 46.294L48.923 64.688L42.616 80.63"/>
<path class="cls-1" d="M52.251 33.768L70.12 33.768L82.558 33.768"/>
<path class="cls-1" d="M70.47 81.418L70.12 33.768"/>
</svg>