<?xml version="1.0" standalone="no"?><!DOCTYPE svg PUBLIC "-//W3C//DTD SVG 1.1//EN" "http://www.w3.org/Graphics/SVG/1.1/DTD/svg11.dtd"><svg t="1766555285391" class="icon" viewBox="0 0 1024 1024" version="1.1" xmlns="http://www.w3.org/2000/svg" p-id="30471" xmlns:xlink="http://www.w3.org/1999/xlink" width="200" height="200"><path d="M83.456 347.136h526.336c-4.096-75.776-6.656-159.744-7.68-251.392h68.096c0.512 91.648 2.56 175.616 6.656 251.392h259.584v60.928h-256c11.264 188.416 30.208 311.808 58.368 370.688s56.832 86.016 87.552 80.896c16.384-11.776 27.136-30.72 31.744-56.832 4.608-26.624 10.752-68.096 18.432-125.952 23.04 9.216 44.544 17.92 64.512 25.088-5.12 56.832-13.312 106.496-24.576 148.992-15.872 51.712-45.056 77.312-88.576 77.312-51.712-3.584-92.672-29.696-122.88-78.336-48.64-62.464-78.848-209.92-90.624-441.856H83.456V347.136z m274.944 81.92h63.488v132.096h162.816v60.928H421.888v177.152c68.608-7.68 140.8-15.872 215.552-24.576l7.68 61.952c-191.488 22.528-374.784 41.984-549.888 58.368l-10.24-64.512c29.696-2.56 60.416-4.608 92.16-7.168v-337.92H240.64v332.288c37.888-3.584 77.312-7.168 117.248-11.264V429.056zM158.208 166.4h388.096v60.928H158.208V166.4z m561.152 9.216l38.4-43.52c47.616 32.256 95.232 68.608 143.36 108.032l-44.544 50.688c-45.056-43.008-90.624-81.408-137.216-115.2z" p-id="30472"></path></svg>