<?xml version="1.0" encoding="UTF-8"?>
<svg id="_图层_1" xmlns="http://www.w3.org/2000/svg" version="1.1" viewBox="0 0 510.65 563.85">
  <!-- Generator: Adobe Illustrator 30.1.0, SVG Export Plug-In . SVG Version: 2.1.1 Build 136)  -->
  <defs>
    <style>
      .st0 {
        fill: none;
        stroke: #88cfda;
        stroke-miterlimit: 10;
        stroke-width: 6px;
      }
    </style>
  </defs>
  <path class="st0" d="M109.66,91.31c1.2,1.57,2.93,3.63,5.25,5.78,1.59,1.46,3.99,3.68,7.23,5.39,2.25,1.18,5.36,2.36,11.43,2.89,7.05.62,12.47-.14,17.87-.92,12.59-1.83,18.89-2.74,22.34-3.42,16.1-3.16,17.2-4.62,29.34-6.83,8.58-1.56,10.98-1.37,25.19-2.89,8.34-.89,20.51-2.35,35.47-4.73"/>
  <path class="st0" d="M.04,294.91c6.86.55,16.25.89,27.33,0,18.98-1.53,32.97-5.87,40.99-8.41,14.61-4.63,14.48-6.52,36.79-15.76,11.45-4.75,22.53-8.6,44.67-16.29,0,0,8.64-2.97,37.12-12.53l.21-.07s4.91-1.65,9.44-3.17c38.45-12.91,53.61-18.39,53.61-18.39,29.27-10.94,26.39-11.66,43.62-17.34,26.61-8.78,48.38-12.01,63.59-14.19,24.34-3.49,37.3-5.79,49.14-4.2,13.19,1.77,26.19,6.09,26.19,6.09,3.39,1.12,6.17,2.19,8.15,2.98"/>
  <path class="st0" d="M187.77,245.42c.45,3.26,1.03,7.83,1.58,13.31,1.34,13.51,1.64,24.37,1.75,34.34.34,30.34-1.03,56.33-1.66,67.18-.64,11.01-1.35,20.61-2.51,34.49-1.85,22.16-4.64,53.02-8.79,91.11"/>
  <path class="st0" d="M189.3,394.94c3.24-1.38,8.09-3.56,13.81-6.55,9.88-5.16,16.39-9.63,20.68-12.42,7.08-4.6,17.64-10.85,32.19-17.34"/>
  <path class="st0" d="M106.2,369.15c1.83,7.48,3.99,17.46,5.78,29.34,2.14,14.19,2.71,24.17,3.68,40.99,1.68,29.28.52,36.87,0,39.94-1.72,10.09-3.9,17.71-7.36,24.7-2.49,5.02-4.16,8.66-7.88,12.61-5.03,5.35-10.61,8.07-14.19,9.46"/>
  <path class="st0" d="M33.67,534.61c6.9.58,16.49.96,27.85,0,14.31-1.21,24.88-3.97,33.64-6.31,14.68-3.91,24.9-8.01,38.89-13.66,16.32-6.6,28.77-11.63,44.08-20.5,8.79-5.09,7.76-5.21,31.07-21.02,22.31-15.13,33.46-22.69,46.77-30.17,14.33-8.05,29.1-15.22,35.21-18.17,6.8-3.29,12.58-5.96,16.82-7.88"/>
  <path class="st0" d="M301.18.39c7.33,5.98,12.43,11.9,15.77,16.29,4.32,5.69,9.26,12.19,11.83,21.55,1.82,6.63,1.52,11.31,1.31,19.18-.35,13.4.45,26.8.39,40.2-.08,14.91.07,5.26,0,39.15-.07,33.69-.19,34.22,0,41.34.63,23.04,2.53,40.49,3.02,44.85,2.44,21.67,5.74,37.32,9.81,56.32,6.79,31.72,13.78,55.65,16.12,63.5,6.56,22.04,14.34,47.87,28.64,80.15,7.31,16.49,16.16,36.26,31.53,60.42,0,0,12.91,19.97,39.42,51.85,1.8,2.16,3.81,4.58,6.74,7.65,2.92,3.05,3.54,3.39,7.53,7.53,2.82,2.93,3.21,3.49,5.26,5.43,3.7,3.51,3.01,2.23,5.96,5.08,1.72,1.66,2.48,2.6,3.5,2.45,1.06-.16,1.65-1.37,2.63-3.33,2.38-4.75,3.36-6.47,3.5-6.83.63-1.62,3.93-8.17,6.31-16.29,3.49-11.94,5.8-28.67,6.48-33.81.38-2.85,2.25-17.3,2.98-35.56.36-9.03.27-14.72,0-19.84-.3-5.73-.82-10.54-1.27-14.02"/>
  <path class="st0" d="M447.41,69.39c2.83,2.04,6.69,4.86,11.23,8.28,3.87,2.91,9.12,6.88,15.77,12.29,5.6,4.56,9.2,7.48,13.86,11.82,4.55,4.24,8.12,7.97,10.58,10.64"/>
</svg>